<?xml version="1.0"?>
<svg xmlns="http://www.w3.org/2000/svg" xmlns:xlink="http://www.w3.org/1999/xlink" version="1.1" width="350" height="40"><rect width="350" height="40" fill="#333"/><rect x="0" width="11" height="6" fill="#F0D165"/><rect x="14" width="11" height="6" fill="#AB5A94"/><rect x="28" width="11" height="6" fill="#AB5A94"/><rect x="42" width="11" height="6" fill="#AB5A94"/><rect x="56" width="11" height="6" fill="#AB5A94"/><rect x="70" width="11" height="6" fill="#AB5A94"/><rect x="84" width="11" height="6" fill="#AB5A94"/><rect x="98" width="11" height="6" fill="#AB5A94"/><rect x="112" width="11" height="6" fill="#5CB59E"/><rect x="126" width="11" height="6" fill="#5CB59E"/><rect x="140" width="11" height="6" fill="#5CB59E"/><rect x="154" width="11" height="6" fill="#5CB59E"/><rect x="168" width="11" height="6" fill="#5CB59E"/><rect x="182" width="11" height="6" fill="#5CB59E"/><rect x="196" width="11" height="6" fill="#5CB59E"/><rect x="210" width="11" height="6" fill="#5CB59E"/><rect x="224" width="11" height="6" fill="#5CB59E"/><rect x="238" width="11" height="6" fill="#5CB59E"/><rect x="252" width="11" height="6" fill="#5CB59E"/><rect x="266" width="11" height="6" fill="#5CB59E"/><rect x="280" width="11" height="6" fill="#5CB59E"/><rect x="294" width="11" height="6" fill="#5CB59E"/><rect x="308" width="11" height="6" fill="#d57272"/><rect x="322" width="11" height="6" fill="#5CB59E"/><rect x="336" width="11" height="6" fill="#5CB59E"/><rect x="0" y="34" width="11" height="6" fill="#F0D165"/><rect x="14" y="34" width="11" height="6" fill="#AB5A94"/><text x="8" y="25" style="font-family:SourceSansPro, arial;font-size:14px;" fill="#f0d165">MatCapMaterial</text></svg>