<?xml version="1.0"?>
<svg xmlns="http://www.w3.org/2000/svg" xmlns:xlink="http://www.w3.org/1999/xlink" version="1.1" width="350" height="40"><rect width="350" height="40" fill="#333"/><rect x="0" width="11" height="6" fill="#F0D165"/><rect x="14" width="11" height="6" fill="#5CB59E"/><rect x="0" y="34" width="11" height="6" fill="#F0D165"/><rect x="14" y="34" width="11" height="6" fill="#5CB59E"/><rect x="28" y="34" width="11" height="6" fill="#5CB59E"/><rect x="42" y="34" width="11" height="6" fill="#5CB59E"/><rect x="56" y="34" width="11" height="6" fill="#5CB59E"/><rect x="70" y="34" width="11" height="6" fill="#5CB59E"/><rect x="84" y="34" width="11" height="6" fill="#5CB59E"/><rect x="98" y="34" width="11" height="6" fill="#5CB59E"/><rect x="112" y="34" width="11" height="6" fill="#5CB59E"/><rect x="126" y="34" width="11" height="6" fill="#5CB59E"/><rect x="140" y="34" width="11" height="6" fill="#5CB59E"/><rect x="154" y="34" width="11" height="6" fill="#5CB59E"/><rect x="168" y="34" width="11" height="6" fill="#5CB59E"/><rect x="182" y="34" width="11" height="6" fill="#5CB59E"/><rect x="196" y="34" width="11" height="6" fill="#5CB59E"/><rect x="210" y="34" width="11" height="6" fill="#5CB59E"/><rect x="224" y="34" width="11" height="6" fill="#5CB59E"/><rect x="238" y="34" width="11" height="6" fill="#5CB59E"/><rect x="252" y="34" width="11" height="6" fill="#5CB59E"/><rect x="266" y="34" width="11" height="6" fill="#5CB59E"/><rect x="280" y="34" width="11" height="6" fill="#5CB59E"/><rect x="294" y="34" width="11" height="6" fill="#5CB59E"/><rect x="308" y="34" width="11" height="6" fill="#AB5A94"/><rect x="322" y="34" width="11" height="6" fill="#F0D165"/><rect x="336" y="34" width="11" height="6" fill="#5CB59E"/><text x="8" y="25" style="font-family:SourceSansPro, arial;font-size:14px;" fill="#e7e7e7">VrController</text></svg>